# xmcd
#
# Track frame offsets:
#	150
#	28422
#	53867
#	59232
#	74207
#	79742
#	103125
#	110050
#	126600
#	142410
#	163667
#	190280
#	221015
#
# Disc length: 3368 seconds
#
# Revision: 1
# Processed by: cddbd v1.4PL0 Copyright (c) Steve Scherf et al.
# Submitted via: audiograbber 1.80
#
DISCID=e60d260d
DTITLE=Pink Baxter - Baxter Live Vol. 2 CD2
DYEAR=1900
DGENRE=
TTITLE0=Nicht´s auf der Welt haut mich um
TTITLE1=Everybody loves somebody
TTITLE2=Intermezzo
TTITLE3=Ich brech die Herzen...
TTITLE4=La cucaracha
TTITLE5=Auf der Reeperbahn...
TTITLE6=Intermezzo
TTITLE7=Mister X
TTITLE8=Speech Baxter
TTITLE9=Gift
TTITLE10=How I miss you
TTITLE11=Flasche Whisky
TTITLE12=Mondsüchtig
EXTD=
EXTT0=
EXTT1=
EXTT2=
EXTT3=
EXTT4=
EXTT5=
EXTT6=
EXTT7=
EXTT8=
EXTT9=
EXTT10=
EXTT11=
EXTT12=
PLAYORDER=
